<svg width="99" height="24" viewBox="0 0 99 24" fill="none" xmlns="http://www.w3.org/2000/svg">
<path d="M0 18.237C0.0490466 17.4359 0.0980929 16.2425 0.0980929 15.1961V0.939941H2.22344V8.34597H2.27249C3.02454 7.03806 4.39784 6.17157 6.29431 6.17157C9.22075 6.17157 11.2971 8.60755 11.2644 12.188C11.2644 16.406 8.61585 18.4986 5.98368 18.4986C4.2834 18.4986 2.9101 17.8447 2.04361 16.2752H1.97821L1.84742 18.237H0ZM2.22344 13.5122C2.22344 13.7738 2.27249 14.0517 2.32154 14.297C2.73026 15.7847 3.97277 16.7983 5.54226 16.7983C7.78205 16.7983 9.12266 14.9673 9.12266 12.2697C9.12266 9.89911 7.8965 7.8882 5.60766 7.8882C4.15261 7.8882 2.7793 8.88548 2.33789 10.5204C2.28884 10.7656 2.22344 11.0599 2.22344 11.4032V13.5122Z" fill="#A60000"/>
<path d="M20.5015 18.237L20.338 16.7492H20.2726C19.6186 17.6811 18.3434 18.4985 16.6595 18.4985C14.2726 18.4985 13.0464 16.8146 13.0464 15.1143C13.0464 12.2696 15.5805 10.7001 20.1418 10.7328V10.4876C20.1418 9.50668 19.8802 7.75735 17.4606 7.75735C16.3652 7.75735 15.2208 8.10068 14.387 8.64019L13.8965 7.23419C14.8775 6.59659 16.2835 6.18787 17.7712 6.18787C21.3843 6.18787 22.2508 8.65654 22.2508 11.0108V15.425C22.2508 16.4549 22.2998 17.4522 22.447 18.2533L20.5015 18.237ZM20.1745 12.2206C17.8366 12.1715 15.1881 12.5803 15.1881 14.8691C15.1881 16.2588 16.12 16.9127 17.2153 16.9127C18.7521 16.9127 19.7167 15.9318 20.06 14.9345C20.1254 14.722 20.1745 14.4767 20.1745 14.2478V12.2206Z" fill="#A60000"/>
<path d="M25.7168 0.939941H27.8585V18.237H25.7168V0.939941Z" fill="#A60000"/>
<path d="M31.1767 16.0462C31.8143 16.4549 32.926 16.8964 34.0051 16.8964C35.5582 16.8964 36.2939 16.1116 36.2939 15.147C36.2939 14.1171 35.689 13.5612 34.1031 12.9726C31.9778 12.2206 30.9805 11.0435 30.9805 9.63746C30.9805 7.741 32.5173 6.17151 35.0514 6.17151C36.2448 6.17151 37.2912 6.51483 37.9451 6.90721L37.4056 8.46035C36.9478 8.16607 36.0977 7.77369 34.986 7.77369C33.7271 7.77369 33.0078 8.5094 33.0078 9.37588C33.0078 10.3568 33.7108 10.7819 35.2476 11.3704C37.2912 12.1552 38.3375 13.1688 38.3375 14.9345C38.3375 17.0108 36.7353 18.4658 33.9233 18.4658C32.6318 18.4658 31.4383 18.1552 30.6045 17.6648L31.1767 16.0462Z" fill="#A60000"/>
<path d="M47.4551 18.0491L47.2916 16.5614H47.2262C46.5722 17.4932 45.297 18.3107 43.6131 18.3107C41.2262 18.3107 40 16.6267 40 14.9265C40 12.0818 42.5341 10.5123 47.0954 10.545V10.2997C47.0954 9.31881 46.8338 7.56949 44.4142 7.56949C43.3188 7.56949 42.1744 7.91282 41.3406 8.45233L40.8501 7.04633C41.8311 6.40872 43.2371 6 44.7248 6C48.3379 6 49.2044 8.46868 49.2044 10.8229V15.2371C49.2044 16.2671 49.2535 17.2644 49.4006 18.0655L47.4551 18.0491ZM47.1445 12.0327C44.8066 11.9837 42.1581 12.3924 42.1581 14.6812C42.1581 16.0709 43.0899 16.7248 44.1853 16.7248C45.7221 16.7248 46.6867 15.7439 47.03 14.7466C47.0954 14.5341 47.1445 14.2889 47.1445 14.06V12.0327Z" fill="#A60000"/>
<path d="M53.0981 9.46595C53.0981 8.23979 53.0817 7.24251 53 6.27793H54.8801L54.9782 8.1744H55.06C55.7139 7.04632 56.8093 6 58.7548 6C60.357 6 61.5831 6.98093 62.09 8.37058H62.139C62.4987 7.71663 62.9728 7.20982 63.4633 6.83379C64.1663 6.29428 64.951 6 66.0791 6C67.6322 6 69.9538 7.02998 69.9538 11.1172V18.0655H67.8611V11.3951C67.8611 9.12263 67.0273 7.76567 65.3107 7.76567C64.0845 7.76567 63.1363 8.66486 62.7766 9.71119C62.6785 10.0055 62.6131 10.3978 62.6131 10.7902V18.0818H60.5205V11.0191C60.5205 9.13898 59.6867 7.78202 58.0518 7.78202C56.7112 7.78202 55.7303 8.86105 55.4033 9.92372C55.2888 10.2344 55.2398 10.6104 55.2398 10.9701V18.0818H53.0981V9.46595Z" fill="#A60000"/>
<path d="M75.5806 3.13077C75.597 3.86647 75.0738 4.43868 74.2237 4.43868C73.4716 4.43868 72.9321 3.85012 72.9321 3.13077C72.9321 2.37872 73.488 1.79016 74.2727 1.79016C75.0575 1.79016 75.5806 2.37872 75.5806 3.13077ZM73.1774 18.2371V6.44958H75.3191V18.2371H73.1774Z" fill="#A60000"/>
<path d="M86.927 16.4222H86.8779C86.2403 17.5994 84.9324 18.5149 83.0359 18.5149C80.2893 18.5149 78.0332 16.128 78.0332 12.5476C78.0332 8.13338 80.8779 6.18787 83.3629 6.18787C85.194 6.18787 86.4038 7.08705 86.9924 8.23147H87.0414L87.1068 6.44944H89.1504C89.1014 7.44672 89.085 8.4767 89.085 9.68652V23.0599H86.9433L86.927 16.4222ZM86.927 11.2233C86.927 10.929 86.9106 10.5857 86.8289 10.3241C86.5183 9.01622 85.3738 7.88815 83.7553 7.88815C81.5319 7.88815 80.1913 9.76826 80.1913 12.4168C80.1913 14.7547 81.3193 16.7983 83.6736 16.7983C85.0632 16.7983 86.2567 15.9481 86.7471 14.4604C86.8452 14.1661 86.9106 13.7574 86.9106 13.4304V11.2233H86.927Z" fill="#A60000"/>
<path d="M98.0931 8.82001C98.0931 10.3241 96.8996 11.5176 95.3628 11.5176C93.8424 11.5176 92.6162 10.3241 92.6162 8.82001C92.6162 7.34862 93.8424 6.15515 95.3628 6.15515C96.8996 6.15515 98.0931 7.34862 98.0931 8.82001ZM93.3029 8.82001C93.3029 10.0135 94.1857 10.9454 95.3792 10.9454C96.5563 10.9454 97.4064 9.99713 97.4064 8.83636C97.4064 7.6429 96.5399 6.69466 95.3628 6.69466C94.1857 6.69466 93.3029 7.65924 93.3029 8.82001ZM94.9377 10.226H94.3165V7.56115C94.5617 7.51211 94.9051 7.47941 95.3465 7.47941C95.8533 7.47941 96.0822 7.56115 96.2783 7.67559C96.4255 7.79003 96.5399 8.00257 96.5399 8.26415C96.5399 8.55843 96.311 8.78732 95.9841 8.88541V8.91811C96.2457 9.0162 96.3928 9.21239 96.4745 9.57206C96.5563 9.98078 96.6053 10.1443 96.6707 10.2424H96.0004C95.9187 10.1443 95.8696 9.89904 95.7879 9.58841C95.7388 9.29413 95.5754 9.16334 95.232 9.16334H94.9377V10.226ZM94.9541 8.70557H95.2484C95.5917 8.70557 95.8696 8.59113 95.8696 8.3132C95.8696 8.06797 95.6898 7.90448 95.2974 7.90448C95.1339 7.90448 95.0195 7.92083 94.9541 7.93718V8.70557Z" fill="#A60000"/>
</svg>
