<svg width="44" height="31" viewBox="0 0 44 31" fill="none" xmlns="http://www.w3.org/2000/svg">
<path d="M37.825 31H6.67964C5.04129 30.9981 3.47059 30.3464 2.3121 29.1879C1.15361 28.0294 0.501924 26.4587 0.5 24.8204V6.17964C0.501924 4.54129 1.15361 2.97059 2.3121 1.8121C3.47059 0.65361 5.04129 0.00192408 6.67964 0H37.825C39.4634 0.00192408 41.0341 0.65361 42.1926 1.8121C43.3511 2.97059 44.0028 4.54129 44.0047 6.17964V24.8204C44.0028 26.4587 43.3511 28.0294 42.1926 29.1879C41.0341 30.3464 39.4634 30.9981 37.825 31ZM6.67964 2.18105C5.61915 2.18105 4.60209 2.60233 3.85221 3.35221C3.10233 4.10209 2.68105 5.11915 2.68105 6.17964V24.8204C2.68105 25.8808 3.10233 26.8979 3.85221 27.6478C4.60209 28.3977 5.61915 28.8189 6.67964 28.8189H37.825C38.8855 28.8189 39.9026 28.3977 40.6525 27.6478C41.4024 26.8979 41.8236 25.8808 41.8236 24.8204V6.17964C41.8236 5.11915 41.4024 4.10209 40.6525 3.35221C39.9026 2.60233 38.8855 2.18105 37.825 2.18105H6.67964Z" fill="black"/>
<path d="M22.2549 19.92C20.9096 19.9221 19.6003 19.4856 18.5253 18.6768L1.54944 5.83764C1.4295 5.75346 1.32775 5.64598 1.25028 5.5216C1.1728 5.39722 1.12119 5.2585 1.09852 5.11373C1.07585 4.96897 1.08259 4.82111 1.11833 4.679C1.15407 4.5369 1.21809 4.40345 1.30656 4.28663C1.39503 4.16982 1.50613 4.07203 1.63323 3.99911C1.76033 3.92619 1.90082 3.87963 2.04632 3.86222C2.19181 3.84481 2.33933 3.85689 2.48005 3.89776C2.62077 3.93863 2.75181 4.00743 2.86534 4.10007L19.8412 16.9537C20.5383 17.4741 21.3849 17.7553 22.2549 17.7553C23.1248 17.7553 23.9715 17.4741 24.6686 16.9537L41.6444 4.10007C41.758 4.00743 41.889 3.93863 42.0297 3.89776C42.1704 3.85689 42.318 3.84481 42.4634 3.86222C42.6089 3.87963 42.7494 3.92619 42.8765 3.99911C43.0036 4.07203 43.1147 4.16982 43.2032 4.28663C43.2917 4.40345 43.3557 4.5369 43.3914 4.679C43.4272 4.82111 43.4339 4.96897 43.4112 5.11373C43.3886 5.2585 43.337 5.39722 43.2595 5.5216C43.182 5.64598 43.0803 5.75346 42.9603 5.83764L25.9845 18.6768C24.9095 19.4856 23.6002 19.9221 22.2549 19.92Z" fill="black"/>
<path d="M2.02578 27.9609C1.8046 27.9612 1.58856 27.8942 1.4063 27.7689C1.22405 27.6436 1.08421 27.4658 1.00534 27.2592C0.926475 27.0526 0.912302 26.8268 0.964708 26.6119C1.01711 26.3971 1.13362 26.2032 1.29877 26.0561L14.6759 14.1257C14.8918 13.9329 15.1755 13.8338 15.4646 13.8501C15.7536 13.8665 16.0243 13.997 16.2172 14.213C16.41 14.4289 16.5091 14.7126 16.4927 15.0017C16.4764 15.2907 16.3459 15.5614 16.1299 15.7542L2.7528 27.6846C2.55414 27.8653 2.29435 27.9641 2.02578 27.9609ZM42.4915 27.9609C42.223 27.9641 41.9632 27.8653 41.7645 27.6846L28.3874 15.7542C28.1715 15.5614 28.0409 15.2907 28.0246 15.0017C28.0082 14.7126 28.1074 14.4289 28.3002 14.213C28.493 13.997 28.7637 13.8665 29.0527 13.8501C29.3418 13.8338 29.6255 13.9329 29.8414 14.1257L43.2113 26.0561C43.3764 26.2032 43.4929 26.3971 43.5453 26.6119C43.5978 26.8268 43.5836 27.0526 43.5047 27.2592C43.4258 27.4658 43.286 27.6436 43.1038 27.7689C42.9215 27.8942 42.7055 27.9612 42.4843 27.9609H42.4915Z" fill="black"/>
</svg>
