<?xml version="1.0" encoding="UTF-8"?>
<svg version="1.1" xmlns="http://www.w3.org/2000/svg" width="1200" height="600">
<path d="M0 0 C396 0 792 0 1200 0 C1200 198 1200 396 1200 600 C804 600 408 600 0 600 C0 402 0 204 0 0 Z " fill="#CD1126" transform="translate(0,0)"/>
<path d="M0 0 C4.65917806 0.08628322 9.31839807 0.17017529 13.97761788 0.25416842 C98.44442329 1.78010593 182.8930139 3.93445949 267.30594897 7.34809405 C268.2129648 7.38468725 269.11998064 7.42128044 270.05448181 7.45898252 C306.4976717 8.9324167 342.92698265 10.68404427 379.36089586 12.37705524 C379.36089586 78.37705524 379.36089586 144.37705524 379.36089586 212.37705524 C-16.30910414 212.37705524 -411.97910414 212.37705524 -819.63910414 212.37705524 C-818.31910414 211.38705524 -816.99910414 210.39705524 -815.63910414 209.37705524 C-814.16741303 208.23149258 -812.69829332 207.08262236 -811.23111177 205.93128974 C-766.87246749 171.29763167 -720.07772119 140.83458759 -671.49422801 112.46708918 C-668.46467441 110.69719103 -665.43865632 108.9213522 -662.41270662 107.14530141 C-586.99582021 62.99601903 -503.27247982 24.72730697 0 0 Z " fill="#00793C" transform="translate(820.6391041353345,387.6229447647929)"/>
<path d="M0 0 C395.67 0 791.34 0 1199 0 C1199 66 1199 132 1199 200 C1116.08931634 203.89548246 1116.08931634 203.89548246 1087.04722595 205.08006287 C1086.09627161 205.11894231 1085.14531726 205.15782175 1084.16554611 205.19787936 C999.59603126 208.64854224 914.98756585 210.76572686 830.36350888 212.30949259 C825.71260953 212.39435998 821.06174223 212.48073167 816.41089755 212.56854391 C704.11350102 214.68665952 591.47422276 215.75672478 152.00057328 102.29527074 C148.92366128 100.49188911 145.84332062 98.69447378 142.76256466 96.89766836 C93.07090822 67.86493258 45.33080465 36.47919143 0 1 C0 0.67 0 0.34 0 0 Z " fill="#000000" transform="translate(1,0)"/>
<path d="M0 0 C263.67 0 527.34 0 799 0 C799 66 799 132 799 200 C535.33 200 271.66 200 0 200 C3.7769867 197.16725998 7.55806118 195.0812266 11.75662231 192.9947052 C12.54267094 192.6001209 13.32871956 192.2055366 14.13858783 191.7989952 C16.7729542 190.47782336 19.41014318 189.16238889 22.04736328 187.84692383 C23.93647606 186.90101248 25.82541847 185.95476082 27.71420288 185.00819397 C32.84429681 182.43858477 37.9769117 179.87404961 43.11009836 177.31062531 C48.47554572 174.63043042 53.83904281 171.9463378 59.20285034 169.26286316 C68.20817712 164.75838004 77.21518641 160.25727507 86.22314453 155.75805664 C96.65023401 150.54995876 107.07442394 145.33609303 117.49713337 140.11923581 C126.43667803 135.64493229 135.37777115 131.17373514 144.32017696 126.70515269 C149.66534436 124.03413113 155.00995943 121.36201961 160.35318375 118.68711281 C165.37295134 116.17435005 170.39464487 113.66547969 175.41788101 111.15965843 C177.26573398 110.23705921 179.11290011 109.31308293 180.95934296 108.38766479 C183.47018658 107.1295303 185.98341607 105.8762993 188.49734497 104.62434387 C189.23585288 104.25285919 189.97436079 103.88137452 190.73524773 103.49863273 C195.7716994 101 195.7716994 101 198 101 C198 100.34 198 99.68 198 99 C197.17521841 98.75012896 196.35043682 98.50025791 195.50066185 98.24281502 C191.48546545 96.81732847 187.78900788 95.02992821 183.9894104 93.11495972 C183.2002418 92.72122984 182.4110732 92.32749996 181.59799039 91.92183888 C178.96136139 90.6051679 176.32762741 89.28280928 173.69384766 87.96044922 C171.80153295 87.01400973 169.90904191 86.06792273 168.01638794 85.12216187 C162.88287806 82.55569385 157.75184984 79.98429991 152.62125063 77.41201925 C147.25750696 74.72389646 141.89149767 72.04030405 136.52572632 69.35623169 C126.36702008 64.2737704 116.21036004 59.18723391 106.0544275 54.09923279 C94.49139575 48.30653983 82.92609224 42.51838955 71.36059499 36.7306211 C47.57119746 24.82546959 23.78466075 12.91461172 0 1 C0 0.67 0 0.34 0 0 Z " fill="#FEFEFE" transform="translate(401,200)"/>
<path d="M0 0 C2.96082171 3.47652039 4.5449593 7.35678468 6.1875 11.5625 C6.46013672 12.23474609 6.73277344 12.90699219 7.01367188 13.59960938 C8.18137285 16.54666423 9 18.80156144 9 22 C9.65597168 21.81824219 10.31194336 21.63648438 10.98779297 21.44921875 C13.94947352 20.63017573 16.91221575 19.81504102 19.875 19 C20.90753906 18.71382813 21.94007813 18.42765625 23.00390625 18.1328125 C24.48310547 17.72675781 24.48310547 17.72675781 25.9921875 17.3125 C26.90339355 17.06113281 27.81459961 16.80976563 28.75341797 16.55078125 C31 16 31 16 33 16 C31.18763947 21.01737704 28.48039915 25.4530381 25.74609375 30.00390625 C23.52731291 33.74148032 23.52731291 33.74148032 23 38 C24.78472835 39.62230414 24.78472835 39.62230414 27.15625 41.1015625 C28.01347656 41.67390625 28.87070313 42.24625 29.75390625 42.8359375 C30.66011719 43.42632812 31.56632812 44.01671875 32.5 44.625 C34.28309661 45.80189449 36.06445271 46.98143182 37.84375 48.1640625 C38.63974609 48.68436035 39.43574219 49.2046582 40.25585938 49.74072266 C40.83142578 50.15628418 41.40699219 50.5718457 42 51 C42 51.33 42 51.66 42 52 C38.58399853 52.50461625 35.1671006 53.00288576 31.75 53.5 C30.78191406 53.64308594 29.81382812 53.78617187 28.81640625 53.93359375 C27.41455078 54.13662109 27.41455078 54.13662109 25.984375 54.34375 C25.12553711 54.46943359 24.26669922 54.59511719 23.38183594 54.72460938 C21 55 21 55 17 55 C17.144375 56.134375 17.28875 57.26875 17.4375 58.4375 C17.62525334 59.95830208 17.81273903 61.47913722 18 63 C18.09539062 63.74378906 18.19078125 64.48757813 18.2890625 65.25390625 C18.89227676 70.20888051 19.09075591 75.00842496 19 80 C13.35709033 76.07917721 8.68871699 71.7600017 4.078125 66.66015625 C2.17451879 64.77446938 2.17451879 64.77446938 -0.0625 65.05078125 C-2.28552769 66.13988554 -3.57124233 67.30770408 -5.25 69.125 C-8.95125723 72.99449619 -12.82066614 76.64633941 -17 80 C-17.33 80 -17.66 80 -18 80 C-18.12190678 71.60197746 -17.84327749 63.35748222 -17 55 C-17.81082031 54.95101562 -18.62164062 54.90203125 -19.45703125 54.8515625 C-26.76135227 54.35837202 -33.83026922 53.47992439 -41 52 C-37.53233124 48.17483962 -33.54420806 45.54245288 -29.25 42.75 C-28.55261719 42.29109375 -27.85523438 41.8321875 -27.13671875 41.359375 C-25.42725789 40.23534594 -23.71400488 39.11708776 -22 38 C-22.61933774 35.05865539 -23.55293497 32.77111762 -25.06640625 30.1796875 C-25.46923828 29.47972656 -25.87207031 28.77976562 -26.28710938 28.05859375 C-26.70798828 27.33800781 -27.12886719 26.61742187 -27.5625 25.875 C-28.40102843 24.43715913 -29.23585618 22.99715167 -30.06640625 21.5546875 C-30.43709229 20.92030762 -30.80777832 20.28592773 -31.18969727 19.63232422 C-32 18 -32 18 -32 16 C-31.26136719 16.19335938 -30.52273437 16.38671875 -29.76171875 16.5859375 C-22.87749475 18.35291748 -16.00505755 19.80759987 -9 21 C-8.76289307 20.39937744 -8.52578613 19.79875488 -8.28149414 19.17993164 C-7.21117428 16.4730531 -6.13689225 13.76776459 -5.0625 11.0625 C-4.50272461 9.64420898 -4.50272461 9.64420898 -3.93164062 8.19726562 C-3.57392578 7.29814453 -3.21621094 6.39902344 -2.84765625 5.47265625 C-2.3527771 4.22367554 -2.3527771 4.22367554 -1.84790039 2.94946289 C-1 1 -1 1 0 0 Z " fill="#FEFAFB" transform="translate(185,258)"/>
</svg>
