<svg width="47" height="35" viewBox="0 0 47 35" fill="none" xmlns="http://www.w3.org/2000/svg">
<g clip-path="url(#clip0_1_224)">
<path d="M47 0H1.90735e-06V11.6667H47V0Z" fill="#FF9933"/>
<path d="M47 11.667H1.90735e-06V23.3337H47V11.667Z" fill="white"/>
<path d="M47 23.333H1.90735e-06V34.9997H47V23.333Z" fill="#128807"/>
<path d="M23.4992 22.1673C20.9035 22.1673 18.7992 20.078 18.7992 17.5007C18.7992 14.9233 20.9035 12.834 23.4992 12.834C26.095 12.834 28.1992 14.9233 28.1992 17.5007C28.1992 20.078 26.095 22.1673 23.4992 22.1673Z" fill="#000088"/>
<path d="M23.4988 21.5837C21.2276 21.5837 19.3863 19.7555 19.3863 17.5003C19.3863 15.2452 21.2276 13.417 23.4988 13.417C25.7701 13.417 27.6113 15.2452 27.6113 17.5003C27.6113 19.7555 25.7701 21.5837 23.4988 21.5837Z" fill="white"/>
<path d="M23.4998 18.3169C23.0455 18.3169 22.6773 17.9513 22.6773 17.5003C22.6773 17.0492 23.0455 16.6836 23.4998 16.6836C23.954 16.6836 24.3223 17.0492 24.3223 17.5003C24.3223 17.9513 23.954 18.3169 23.4998 18.3169Z" fill="#000088"/>
<path d="M19.449 18.2436C19.3332 18.2588 19.227 18.1778 19.2117 18.0628C19.1965 17.9478 19.278 17.8424 19.3938 17.8272C19.5096 17.8121 19.6159 17.893 19.6311 18.008C19.6464 18.123 19.5648 18.2285 19.449 18.2436Z" fill="#000088"/>
<path d="M23.4996 21.5842L23.3586 19.1342L23.4996 17.9675L23.6406 19.1342L23.4996 21.5842Z" fill="#000088"/>
<path d="M19.7836 19.2587C19.6759 19.3029 19.5521 19.2518 19.5073 19.1445C19.4625 19.0372 19.5135 18.9144 19.6213 18.8702C19.729 18.8259 19.8528 18.877 19.8976 18.9843C19.9424 19.0916 19.8914 19.2144 19.7836 19.2587Z" fill="#000088"/>
<path d="M24.5663 21.4449L23.7913 19.1141L23.6223 17.9511L24.0623 19.0421L24.5663 21.4449Z" fill="#000088"/>
<path d="M20.3659 20.1547C20.2734 20.2251 20.1406 20.2075 20.0693 20.1154C19.9981 20.0232 20.0153 19.8914 20.1079 19.8209C20.2004 19.7505 20.3332 19.7681 20.4044 19.8602C20.4757 19.9524 20.4584 20.0842 20.3659 20.1547Z" fill="#000088"/>
<path d="M25.5559 21.0374L24.1999 18.985L23.7338 17.9047L24.4432 18.8455L25.5559 21.0374Z" fill="#000088"/>
<path d="M21.1665 20.8699C21.0956 20.9618 20.9628 20.9789 20.87 20.9082C20.7772 20.8375 20.7595 20.7056 20.8305 20.6138C20.9015 20.5219 21.0342 20.5047 21.127 20.5755C21.2198 20.6462 21.2375 20.778 21.1665 20.8699Z" fill="#000088"/>
<path d="M26.4084 20.3882L24.5639 18.7541L23.8322 17.8303L24.7627 18.5567L26.4084 20.3882Z" fill="#000088"/>
<path d="M22.1214 21.3534C22.0765 21.4607 21.9528 21.5118 21.845 21.4676C21.7373 21.4234 21.6863 21.3005 21.7311 21.1932C21.776 21.0859 21.8997 21.0348 22.0075 21.079C22.1152 21.1232 22.1662 21.246 22.1214 21.3534Z" fill="#000088"/>
<path d="M27.0599 19.5413L24.8526 18.4386L23.906 17.7339L24.9942 18.1952L27.0599 19.5413Z" fill="#000088"/>
<path d="M23.1721 21.5762C23.1567 21.6914 23.0505 21.7726 22.9348 21.7576C22.8192 21.7426 22.7379 21.6371 22.7533 21.522C22.7687 21.4068 22.875 21.3256 22.9906 21.3406C23.1063 21.3556 23.1875 21.4611 23.1721 21.5762Z" fill="#000088"/>
<path d="M27.4714 18.556L25.0516 18.0586L23.9535 17.6212L25.125 17.7869L27.4714 18.556Z" fill="#000088"/>
<path d="M24.2461 21.5207C24.2612 21.6355 24.1794 21.741 24.0634 21.7563C23.9475 21.7716 23.8412 21.6909 23.8261 21.5761C23.811 21.4613 23.8928 21.3558 24.0088 21.3405C24.1248 21.3252 24.231 21.4059 24.2461 21.5207Z" fill="#000088"/>
<path d="M27.6106 17.498L25.1432 17.639L23.9685 17.5035L25.1436 17.3645L27.6106 17.498Z" fill="#000088"/>
<path d="M25.2687 21.1921C25.3134 21.2992 25.262 21.422 25.154 21.4665C25.046 21.5109 24.9223 21.4602 24.8777 21.3531C24.8331 21.246 24.8844 21.1231 24.9924 21.0787C25.1004 21.0342 25.2241 21.085 25.2687 21.1921Z" fill="#000088"/>
<path d="M27.471 16.4433L25.1238 17.2128L23.9524 17.38L25.051 16.943L27.471 16.4433Z" fill="#000088"/>
<path d="M26.1789 20.6137C26.2502 20.7059 26.2329 20.8377 26.1404 20.9082C26.0479 20.9786 25.9151 20.9611 25.8439 20.8689C25.7726 20.7767 25.7898 20.6449 25.8824 20.5745C25.9749 20.504 26.1077 20.5216 26.1789 20.6137Z" fill="#000088"/>
<path d="M27.0665 15.4617L25.0008 16.8078L23.9126 17.2691L24.8592 16.5644L27.0665 15.4617Z" fill="#000088"/>
<path d="M26.8918 19.8218C26.9846 19.8925 27.0024 20.0244 26.9314 20.1162C26.8604 20.2081 26.7277 20.2252 26.6349 20.1545C26.542 20.0837 26.5243 19.9519 26.5953 19.86C26.6662 19.7682 26.799 19.751 26.8918 19.8218Z" fill="#000088"/>
<path d="M26.4074 14.6158L24.7631 16.4471L23.8325 17.1726L24.5631 16.2485L26.4074 14.6158Z" fill="#000088"/>
<path d="M27.3825 18.8707C27.4905 18.9152 27.5419 19.038 27.4973 19.145C27.4527 19.2521 27.329 19.3028 27.221 19.2583C27.113 19.2138 27.0615 19.091 27.1061 18.9839C27.1507 18.8769 27.2744 18.8262 27.3825 18.8707Z" fill="#000088"/>
<path d="M25.5583 13.9668L24.4474 16.1585L23.7377 17.0985L24.2025 16.0181L25.5583 13.9668Z" fill="#000088"/>
<path d="M27.6065 17.8264C27.7224 17.8417 27.8041 17.9472 27.789 18.0621C27.7739 18.1769 27.6676 18.2577 27.5517 18.2425C27.4358 18.2272 27.3541 18.1217 27.3692 18.0068C27.3843 17.892 27.4906 17.8112 27.6065 17.8264Z" fill="#000088"/>
<path d="M24.5646 13.559L24.0633 15.9617L23.6228 17.0521L23.79 15.8889L24.5646 13.559Z" fill="#000088"/>
<path d="M27.5559 16.759C27.6716 16.744 27.7778 16.8252 27.7932 16.9404C27.8086 17.0555 27.7274 17.161 27.6117 17.176C27.4961 17.191 27.3898 17.1098 27.3744 16.9946C27.359 16.8795 27.4403 16.774 27.5559 16.759Z" fill="#000088"/>
<path d="M23.5037 13.4191L23.6457 15.8691L23.5093 17.0354L23.3693 15.8686L23.5037 13.4191Z" fill="#000088"/>
<path d="M27.2222 15.7482C27.33 15.7039 27.4537 15.755 27.4986 15.8623C27.5434 15.9696 27.4924 16.0924 27.3846 16.1367C27.2768 16.1809 27.1531 16.1298 27.1083 16.0225C27.0634 15.9152 27.1144 15.7924 27.2222 15.7482Z" fill="#000088"/>
<path d="M22.4395 13.5619L23.2146 15.8927L23.3836 17.0558L22.9435 15.9647L22.4395 13.5619Z" fill="#000088"/>
<path d="M26.638 14.8483C26.7305 14.7778 26.8633 14.7954 26.9345 14.8876C27.0058 14.9797 26.9885 15.1115 26.896 15.182C26.8035 15.2525 26.6707 15.2349 26.5995 15.1427C26.5282 15.0505 26.5455 14.9187 26.638 14.8483Z" fill="#000088"/>
<path d="M21.448 13.9656L22.804 16.018L23.2701 17.0982L22.5606 16.1574L21.448 13.9656Z" fill="#000088"/>
<path d="M25.8392 14.1341C25.9102 14.0422 26.043 14.0251 26.1358 14.0959C26.2286 14.1666 26.2463 14.2984 26.1753 14.3903C26.1044 14.4822 25.9716 14.4993 25.8788 14.4285C25.786 14.3578 25.7683 14.226 25.8392 14.1341Z" fill="#000088"/>
<path d="M20.5973 14.6158L22.4419 16.2499L23.1736 17.1738L22.2431 16.4473L20.5973 14.6158Z" fill="#000088"/>
<path d="M24.8769 13.6468C24.9218 13.5395 25.0455 13.4883 25.1533 13.5325C25.261 13.5768 25.312 13.6996 25.2671 13.8069C25.2223 13.9142 25.0986 13.9654 24.9908 13.9211C24.883 13.8769 24.8321 13.7541 24.8769 13.6468Z" fill="#000088"/>
<path d="M19.9384 15.4588L22.1457 16.5615L23.0923 17.2663L22.0041 16.8049L19.9384 15.4588Z" fill="#000088"/>
<path d="M23.8258 13.4238C23.8412 13.3086 23.9474 13.2274 24.0631 13.2424C24.1787 13.2574 24.26 13.3629 24.2446 13.478C24.2292 13.5932 24.1229 13.6744 24.0073 13.6594C23.8916 13.6444 23.8104 13.5389 23.8258 13.4238Z" fill="#000088"/>
<path d="M19.5284 16.444L21.9482 16.9414L23.0464 17.3788L21.8748 17.2131L19.5284 16.444Z" fill="#000088"/>
<path d="M22.7558 13.4794C22.7407 13.3646 22.8225 13.2591 22.9385 13.2438C23.0545 13.2285 23.1608 13.3092 23.1758 13.424C23.1909 13.5388 23.1091 13.6443 22.9931 13.6596C22.8771 13.6749 22.7709 13.5942 22.7558 13.4794Z" fill="#000088"/>
<path d="M19.3914 17.503L21.8588 17.3619L23.0334 17.4969L21.8583 17.6358L19.3914 17.503Z" fill="#000088"/>
<path d="M21.7271 13.809C21.6825 13.702 21.7339 13.5791 21.8419 13.5346C21.9499 13.4902 22.0736 13.5409 22.1182 13.648C22.1628 13.755 22.1114 13.8779 22.0034 13.9223C21.8954 13.9668 21.7717 13.9161 21.7271 13.809Z" fill="#000088"/>
<path d="M19.5268 18.558L21.874 17.7885L23.0454 17.6211L21.9467 18.0581L19.5268 18.558Z" fill="#000088"/>
<path d="M20.8226 14.3932C20.7516 14.3012 20.7692 14.1694 20.8619 14.0987C20.9547 14.0281 21.0875 14.0453 21.1585 14.1372C21.2295 14.2292 21.2119 14.361 21.1192 14.4317C21.0264 14.5024 20.8937 14.4851 20.8226 14.3932Z" fill="#000088"/>
<path d="M19.935 19.5452L22.0018 18.1988L23.0898 17.7364L22.1425 18.4409L19.935 19.5452Z" fill="#000088"/>
<path d="M20.1097 15.1823C20.0171 15.1118 19.9998 14.98 20.071 14.8879C20.1421 14.7958 20.2749 14.7783 20.3675 14.8489C20.4601 14.9194 20.4775 15.0512 20.4063 15.1433C20.3351 15.2354 20.2023 15.2529 20.1097 15.1823Z" fill="#000088"/>
<path d="M20.594 20.3876L22.2395 18.5561L23.17 17.8299L22.4386 18.7538L20.594 20.3876Z" fill="#000088"/>
<path d="M19.6211 16.1343C19.5132 16.09 19.4621 15.9672 19.5069 15.86C19.5517 15.7527 19.6754 15.7017 19.7832 15.7461C19.8911 15.7904 19.9422 15.9132 19.8974 16.0204C19.8527 16.1277 19.7289 16.1787 19.6211 16.1343Z" fill="#000088"/>
<path d="M21.4451 21.0372L22.5572 18.8454L23.2667 17.9049L22.801 18.9852L21.4451 21.0372Z" fill="#000088"/>
<path d="M19.4029 17.1776C19.2872 17.1625 19.2058 17.057 19.2211 16.942C19.2364 16.8269 19.3427 16.7459 19.4584 16.7609C19.5741 16.776 19.6556 16.8815 19.6402 16.9965C19.6249 17.1116 19.5187 17.1927 19.4029 17.1776Z" fill="#000088"/>
<path d="M22.4442 21.4459L22.9473 19.0431L23.3875 17.9523L23.2191 19.1154L22.4442 21.4459Z" fill="#000088"/>
</g>
<defs>
<clipPath id="clip0_1_224">
<rect width="47" height="35" fill="white" transform="matrix(-1 0 0 1 47 0)"/>
</clipPath>
</defs>
</svg>
