<svg width="835" height="490" viewBox="0 0 835 490" fill="none" xmlns="http://www.w3.org/2000/svg">
<path d="M2.56488 0.952892C2.50596 0.40376 2.01303 0.00636447 1.4639 0.065287C0.914764 0.12421 0.51737 0.617134 0.576291 1.16627L2.56488 0.952892ZM389.429 175.245L389.269 174.257L389.429 175.245ZM885.972 489.11L887.773 477.704L876.995 481.848L885.972 489.11ZM1.57058 1.05958C0.576291 1.16627 0.576301 1.16635 0.576309 1.16644C0.576314 1.16647 0.576323 1.16657 0.576333 1.16665C0.57635 1.16681 0.57637 1.167 0.576395 1.16723C0.576443 1.16768 0.576506 1.16825 0.576581 1.16896C0.576734 1.17036 0.576943 1.17228 0.577209 1.1747C0.57774 1.17955 0.578502 1.18644 0.579499 1.19534C0.581494 1.21315 0.584436 1.23903 0.588391 1.27289C0.596302 1.3406 0.608264 1.4402 0.624799 1.5708C0.657869 1.83201 0.709234 2.21725 0.783071 2.71955C0.930744 3.72413 1.16832 5.197 1.52924 7.08218L3.49356 6.70611C3.13834 4.85063 2.90551 3.40622 2.76181 2.42868C2.68996 1.93992 2.6404 1.56789 2.60896 1.3196C2.59324 1.19545 2.58206 1.10223 2.57488 1.04082C2.57129 1.01012 2.56871 0.987367 2.56707 0.972677C2.56624 0.96533 2.56565 0.959998 2.56529 0.956699C2.56511 0.955047 2.56499 0.953905 2.56492 0.953268C2.56488 0.952952 2.56486 0.952763 2.56486 0.952698C2.56485 0.952668 2.56485 0.952668 2.56486 0.952699C2.56486 0.952716 2.56486 0.952763 2.56486 0.952772C2.56487 0.952828 2.56488 0.952892 1.57058 1.05958ZM4.221 18.6119C5.15383 22.0426 6.31146 25.8913 7.7425 30.0766L9.63493 29.4295C8.21847 25.2869 7.07322 21.4791 6.15092 18.0871L4.221 18.6119ZM11.9124 41.1806C13.347 44.6845 14.957 48.3387 16.7625 52.1092L18.5663 51.2454C16.7782 47.5112 15.1839 43.8924 13.7633 40.4228L11.9124 41.1806ZM22.2382 62.7479C24.0917 66.1085 26.0999 69.5307 28.2753 72.9935L29.9689 71.9296C27.8143 68.4999 25.8253 65.1105 23.9895 61.782L22.2382 62.7479ZM34.8943 82.8925C37.14 86.0527 39.5299 89.2297 42.0729 92.4084L43.6346 91.159C41.1159 88.0106 38.7488 84.8639 36.5246 81.734L34.8943 82.8925ZM49.7882 101.51C52.3833 104.401 55.1129 107.282 57.984 110.14L59.3951 108.723C56.5509 105.891 53.847 103.038 51.2766 100.174L49.7882 101.51ZM66.6317 118.285C69.533 120.871 72.56 123.428 75.7178 125.948L76.9654 124.385C73.8361 121.888 70.8368 119.354 67.9623 116.792L66.6317 118.285ZM85.2183 133.124C88.3977 135.396 91.695 137.628 95.1145 139.813L96.1914 138.128C92.8012 135.962 89.5325 133.749 86.3811 131.497L85.2183 133.124ZM105.323 145.982C108.688 147.902 112.159 149.777 115.741 151.601L116.648 149.819C113.095 148.01 109.651 146.15 106.314 144.245L105.323 145.982ZM126.478 156.759C130.051 158.377 133.724 159.944 137.5 161.456L138.244 159.599C134.495 158.098 130.848 156.542 127.302 154.937L126.478 156.759ZM148.535 165.61C152.222 166.912 155.999 168.164 159.869 169.36L160.46 167.449C156.615 166.261 152.863 165.018 149.202 163.724L148.535 165.61ZM171.293 172.656C175.042 173.663 178.873 174.62 182.787 175.524L183.237 173.575C179.346 172.676 175.538 171.725 171.812 170.725L171.293 172.656ZM194.514 178.022C198.302 178.763 202.162 179.455 206.097 180.097L206.419 178.123C202.504 177.485 198.665 176.796 194.898 176.059L194.514 178.022ZM218.01 181.855C221.822 182.359 225.701 182.817 229.648 183.227L229.855 181.238C225.926 180.829 222.066 180.373 218.272 179.872L218.01 181.855ZM241.641 184.308C245.478 184.602 249.376 184.852 253.335 185.057L253.438 183.059C249.495 182.856 245.614 182.607 241.794 182.314L241.641 184.308ZM265.32 185.53C269.19 185.636 273.115 185.7 277.098 185.72L277.108 183.72C273.14 183.7 269.23 183.636 265.375 183.53L265.32 185.53ZM289.002 185.652C292.919 185.588 296.888 185.483 300.911 185.335L300.838 183.336C296.828 183.484 292.872 183.588 288.969 183.652L289.002 185.652ZM312.677 184.789C316.649 184.568 320.671 184.305 324.744 184.002L324.595 182.007C320.534 182.31 316.525 182.571 312.565 182.792L312.677 184.789ZM336.364 183.035C340.27 182.677 344.221 182.281 348.218 181.847L348.002 179.859C344.016 180.292 340.076 180.686 336.182 181.043L336.364 183.035ZM360.102 180.462C363.932 179.985 367.802 179.474 371.712 178.927L371.436 176.947C367.535 177.491 363.675 178.001 359.855 178.477L360.102 180.462ZM383.568 177.184C385.565 176.875 387.571 176.558 389.589 176.232L389.269 174.257C387.257 174.583 385.255 174.899 383.263 175.207L383.568 177.184ZM389.589 176.232C391.578 175.91 393.56 175.601 395.535 175.306L395.239 173.328C393.256 173.625 391.266 173.934 389.269 174.257L389.589 176.232ZM407.304 173.684C411.199 173.194 415.067 172.754 418.908 172.364L418.705 170.374C414.849 170.766 410.965 171.207 407.054 171.699L407.304 173.684ZM430.704 171.312C434.67 171.009 438.606 170.758 442.512 170.559L442.41 168.561C438.487 168.761 434.534 169.013 430.551 169.318L430.704 171.312ZM454.141 170.115C458.149 170.014 462.123 169.968 466.066 169.975L466.07 167.975C462.109 167.968 458.116 168.014 454.091 168.116L454.141 170.115ZM477.829 170.156C481.771 170.27 485.681 170.439 489.558 170.659L489.671 168.662C485.776 168.441 481.848 168.272 477.887 168.157L477.829 170.156ZM501.391 171.501C505.301 171.836 509.176 172.224 513.018 172.664L513.246 170.677C509.385 170.235 505.49 169.845 501.561 169.508L501.391 171.501ZM524.789 174.187C528.698 174.752 532.571 175.371 536.407 176.042L536.752 174.072C532.896 173.398 529.003 172.776 525.075 172.208L524.789 174.187ZM547.968 178.243C551.854 179.044 555.701 179.898 559.511 180.804L559.974 178.858C556.144 177.947 552.277 177.089 548.371 176.284L547.968 178.243ZM570.858 183.684C574.699 184.721 578.501 185.811 582.263 186.952L582.843 185.038C579.062 183.891 575.241 182.795 571.379 181.753L570.858 183.684ZM593.43 190.524C597.191 191.79 600.911 193.107 604.59 194.473L605.286 192.598C601.588 191.225 597.848 189.901 594.068 188.628L593.43 190.524ZM615.551 198.733C619.215 200.221 622.837 201.757 626.417 203.338L627.225 201.509C623.627 199.919 619.987 198.375 616.304 196.88L615.551 198.733ZM637.124 208.262C640.684 209.964 644.201 211.711 647.675 213.501L648.591 211.723C645.099 209.924 641.565 208.168 637.987 206.458L637.124 208.262ZM658.087 219.058C661.536 220.964 664.941 222.912 668.303 224.899L669.321 223.177C665.942 221.181 662.52 219.223 659.054 217.307L658.087 219.058ZM678.386 231.054C681.719 233.153 685.006 235.29 688.249 237.462L689.362 235.8C686.104 233.618 682.801 231.471 679.452 229.361L678.386 231.054ZM697.979 244.174C701.19 246.455 704.356 248.768 707.475 251.112L708.677 249.513C705.543 247.159 702.363 244.835 699.137 242.544L697.979 244.174ZM716.835 258.339C719.922 260.788 722.962 263.265 725.955 265.767L727.237 264.233C724.231 261.72 721.178 259.232 718.078 256.773L716.835 258.339ZM734.932 273.467C737.893 276.072 740.806 278.7 743.67 281.347L745.028 279.879C742.151 277.22 739.226 274.581 736.253 271.965L734.932 273.467ZM752.257 289.476C755.093 292.226 757.879 294.993 760.616 297.774L762.041 296.371C759.293 293.579 756.496 290.801 753.649 288.04L752.257 289.476ZM768.804 306.287C771.517 309.173 774.178 312.069 776.788 314.972L778.275 313.635C775.656 310.721 772.985 307.814 770.261 304.917L768.804 306.287ZM784.572 323.823C787.166 326.838 789.705 329.855 792.19 332.871L793.734 331.599C791.24 328.572 788.692 325.544 786.088 322.519L784.572 323.823ZM799.561 342.009C802.039 345.148 804.459 348.28 806.822 351.401L808.417 350.194C806.046 347.062 803.618 343.919 801.13 340.769L799.561 342.009ZM813.815 360.834C816.165 364.072 818.453 367.292 820.679 370.488L822.32 369.345C820.087 366.138 817.791 362.908 815.433 359.659L813.815 360.834ZM827.337 380.252C829.54 383.55 831.674 386.815 833.742 390.042L835.426 388.962C833.352 385.725 831.21 382.449 829.001 379.142L827.337 380.252ZM840.072 400.131C842.18 403.563 844.21 406.941 846.161 410.256L847.884 409.242C845.927 405.916 843.891 402.527 841.777 399.084L840.072 400.131ZM852.011 420.413C854.007 423.954 855.907 427.406 857.712 430.757L859.473 429.808C857.661 426.446 855.755 422.983 853.753 419.431L852.011 420.413ZM863.241 441.26C865.138 444.95 866.905 448.482 868.544 451.835L870.341 450.957C868.696 447.592 866.923 444.048 865.02 440.346L863.241 441.26ZM873.614 462.488C875.431 466.413 877.023 469.979 878.396 473.138L880.23 472.341C878.851 469.168 877.253 465.588 875.429 461.648L873.614 462.488Z" fill="white" fill-opacity="0.38"/>
</svg>
