<svg width="786" height="233" viewBox="0 0 786 233" fill="none" xmlns="http://www.w3.org/2000/svg">
<path d="M2.48366 1.25345C2.33772 0.720793 1.78762 0.407295 1.25496 0.553226C0.722308 0.699157 0.408807 1.24926 0.554739 1.78192L2.48366 1.25345ZM338.424 64.7389L338.909 65.6138L338.424 64.7389ZM785.19 232.89L785.377 221.344L775.285 226.955L785.19 232.89ZM1.5192 1.51768C0.554739 1.78192 0.554759 1.78199 0.55478 1.78207C0.55479 1.7821 0.554813 1.78219 0.554833 1.78226C0.554873 1.78241 0.554922 1.78258 0.554978 1.78279C0.555092 1.7832 0.55524 1.78374 0.555422 1.7844C0.555786 1.78573 0.556287 1.78755 0.556925 1.78985C0.558201 1.79448 0.560026 1.80106 0.562404 1.8096C0.56716 1.82668 0.574129 1.85157 0.583347 1.88414C0.601782 1.94927 0.629211 2.04512 0.665915 2.17065C0.739324 2.4217 0.849839 2.79147 0.999713 3.27163C1.29946 4.23193 1.75667 5.63395 2.38941 7.41106L4.27355 6.74022C3.65016 4.98937 3.20124 3.6124 2.90887 2.67572C2.76269 2.20739 2.65566 1.84916 2.58553 1.60934C2.55047 1.48943 2.52464 1.39913 2.50775 1.33947C2.49931 1.30963 2.4931 1.28746 2.4891 1.27308C2.4871 1.26589 2.48564 1.26065 2.48474 1.25738C2.48429 1.25574 2.48397 1.25459 2.48379 1.25393C2.4837 1.25361 2.48364 1.2534 2.48362 1.25332C2.48361 1.25328 2.48361 1.25327 2.48361 1.25329C2.48362 1.2533 2.48363 1.25334 2.48363 1.25335C2.48364 1.2534 2.48366 1.25345 1.5192 1.51768ZM6.76596 18.3624C8.19321 21.6017 9.89467 25.2042 11.8985 29.0661L13.6738 28.145C11.6909 24.3234 10.0076 20.7594 8.59618 17.556L6.76596 18.3624ZM17.6959 39.4376C19.6367 42.6696 21.7684 46.0017 24.1035 49.3877L25.7499 48.2523C23.44 44.9028 21.3309 41.606 19.4105 38.408L17.6959 39.4376ZM31.1328 58.9073C33.5191 61.9271 36.0707 64.9554 38.7962 67.9608L40.2777 66.6173C37.5841 63.6469 35.0616 60.6533 32.702 57.6673L31.1328 58.9073ZM47.0731 76.4681C49.8748 79.1499 52.8286 81.7879 55.9409 84.3579L57.2144 82.8158C54.1411 80.278 51.2238 77.6726 48.4561 75.0233L47.0731 76.4681ZM65.3672 91.564C68.537 93.8023 71.8479 95.9626 75.3052 98.0259L76.3301 96.3085C72.9179 94.2721 69.6498 92.1398 66.5208 89.9303L65.3672 91.564ZM85.7193 103.707C89.1896 105.43 92.7896 107.053 96.5233 108.562L97.2728 106.708C93.587 105.218 90.0336 103.616 86.6085 101.916L85.7193 103.707ZM107.653 112.58C111.331 113.755 115.125 114.82 119.039 115.764L119.508 113.82C115.641 112.887 111.893 111.835 108.261 110.675L107.653 112.58ZM130.623 118.135C134.431 118.78 138.343 119.313 142.36 119.725L142.564 117.735C138.59 117.328 134.722 116.801 130.957 116.163L130.623 118.135ZM154.225 120.571C158.074 120.727 162.013 120.777 166.043 120.712L166.011 118.712C162.018 118.776 158.117 118.727 154.306 118.572L154.225 120.571ZM177.794 120.21C181.656 119.944 185.597 119.577 189.617 119.103L189.382 117.117C185.394 117.587 181.486 117.951 177.657 118.214L177.794 120.21ZM201.339 117.448C205.12 116.829 208.967 116.118 212.882 115.31L212.478 113.351C208.589 114.153 204.769 114.86 201.016 115.475L201.339 117.448ZM224.559 112.663C228.254 111.752 232.008 110.756 235.819 109.675L235.273 107.751C231.483 108.826 227.753 109.815 224.08 110.722L224.559 112.663ZM247.224 106.234C250.873 105.07 254.572 103.828 258.322 102.507L257.658 100.62C253.925 101.935 250.245 103.17 246.616 104.329L247.224 106.234ZM269.487 98.3954C273.064 97.022 276.686 95.578 280.354 94.0617L279.59 92.2134C275.938 93.7234 272.331 95.1611 268.77 96.5283L269.487 98.3954ZM291.339 89.3627C294.829 87.8202 298.358 86.2136 301.928 84.5414L301.08 82.7303C297.523 84.3964 294.006 85.9969 290.53 87.5334L291.339 89.3627ZM312.758 79.3264C316.167 77.6411 319.61 75.8972 323.09 74.0934L322.17 72.3178C318.701 74.1158 315.269 75.854 311.872 77.5336L312.758 79.3264ZM333.582 68.5308C335.349 67.5736 337.124 66.6014 338.909 65.6138L337.94 63.8639C336.161 64.8486 334.391 65.818 332.629 66.7723L333.582 68.5308ZM338.909 65.6138C340.742 64.5993 342.57 63.6055 344.394 62.6324L343.452 60.8679C341.62 61.8458 339.782 62.8445 337.94 63.8639L338.909 65.6138ZM355.278 57.0387C358.918 55.2396 362.539 53.5225 366.14 51.8854L365.312 50.0648C361.691 51.7109 358.051 53.4372 354.392 55.2457L355.278 57.0387ZM377.449 46.9772C381.197 45.4283 384.922 43.9659 388.625 42.5878L387.928 40.7134C384.202 42.0999 380.454 43.571 376.685 45.1288L377.449 46.9772ZM400.249 38.5119C404.116 37.2393 407.958 36.0583 411.774 34.9664L411.224 33.0435C407.382 34.1428 403.515 35.3314 399.624 36.6121L400.249 38.5119ZM423.63 31.8373C427.59 30.8805 431.521 30.0191 435.424 29.2502L435.037 27.2879C431.106 28.0624 427.147 28.9298 423.16 29.8933L423.63 31.8373ZM447.487 27.1505C451.508 26.5431 455.498 26.0334 459.456 25.6177L459.247 23.6287C455.259 24.0475 451.239 24.561 447.188 25.1729L447.487 27.1505ZM471.664 24.6247C475.723 24.3908 479.748 24.2553 483.737 24.2143L483.717 22.2144C479.696 22.2558 475.639 22.3923 471.549 22.628L471.664 24.6247ZM495.963 24.3839C500.036 24.5392 504.071 24.7922 508.067 25.1383L508.24 23.1458C504.212 22.7969 500.145 22.5419 496.04 22.3854L495.963 24.3839ZM520.165 26.4822C524.211 27.031 528.215 27.6742 532.178 28.4072L532.542 26.4405C528.548 25.7018 524.512 25.0535 520.434 24.5004L520.165 26.4822ZM544.05 30.8955C548.03 31.8281 551.965 32.8498 555.856 33.9554L556.403 32.0316C552.482 30.9176 548.517 29.888 544.506 28.9483L544.05 30.8955ZM567.459 37.54C571.325 38.831 575.146 40.2033 578.92 41.6515L579.636 39.7842C575.835 38.3257 571.987 36.9434 568.092 35.6429L567.459 37.54ZM590.189 46.2563C593.917 47.873 597.596 49.5617 601.227 51.3167L602.097 49.5161C598.442 47.7494 594.738 46.0492 590.984 44.4214L590.189 46.2563ZM612.102 56.8451C615.696 58.7618 619.238 60.7411 622.729 62.777L623.736 61.0494C620.224 59.0011 616.66 57.0094 613.044 55.0804L612.102 56.8451ZM633.122 69.0969C636.574 71.282 639.971 73.5194 643.314 75.8027L644.442 74.1512C641.08 71.8551 637.664 69.6049 634.192 67.407L633.122 69.0969ZM653.245 82.8332C656.537 85.2467 659.772 87.7011 662.95 90.1894L664.183 88.6148C660.989 86.1138 657.737 83.6466 654.427 81.2202L653.245 82.8332ZM672.444 97.8628C675.582 100.479 678.659 103.124 681.674 105.79L682.999 104.291C679.97 101.613 676.878 98.9557 673.724 96.3266L672.444 97.8628ZM690.683 113.984C693.689 116.795 696.627 119.621 699.497 122.453L700.902 121.03C698.02 118.185 695.069 115.347 692.049 112.523L690.683 113.984ZM708.055 131.122C710.897 134.075 713.663 137.026 716.354 139.965L717.829 138.614C715.127 135.663 712.35 132.701 709.496 129.735L708.055 131.122ZM724.515 149.1C727.246 152.232 729.887 155.339 732.439 158.409L733.977 157.13C731.416 154.049 728.764 150.93 726.022 147.786L724.515 149.1ZM740.126 167.876C742.721 171.149 745.206 174.362 747.581 177.5L749.176 176.293C746.792 173.143 744.298 169.918 741.693 166.633L740.126 167.876ZM754.817 187.288C757.313 190.747 759.656 194.08 761.844 197.262L763.492 196.128C761.296 192.934 758.944 189.589 756.438 186.118L754.817 187.288ZM768.663 207.435C771.131 211.214 773.313 214.668 775.205 217.737L776.907 216.688C775.007 213.605 772.815 210.136 770.338 206.342L768.663 207.435Z" fill="white" fill-opacity="0.38"/>
</svg>
