<svg width="30" height="18" viewBox="0 0 30 18" fill="none" xmlns="http://www.w3.org/2000/svg">
<path d="M21.0702 17.1776C20.7898 16.8972 20.7989 16.454 21.0702 16.1555L27.0764 9.42563H1.33301C0.935012 9.42563 0.609375 9.1 0.609375 8.702C0.609375 8.304 0.935012 7.97836 1.33301 7.97836H27.0764L21.0793 1.24853C20.817 0.94098 20.7898 0.515842 21.0702 0.235433C21.3506 -0.0449771 21.8391 -0.0630673 22.1014 0.226388C22.1014 0.226388 29.2654 8.09595 29.3378 8.1864C29.4102 8.27686 29.5549 8.43968 29.5549 8.702C29.5549 8.96431 29.4102 9.14522 29.3378 9.21759C29.2654 9.28995 22.1014 17.1776 22.1014 17.1776C21.9657 17.3133 21.7758 17.3856 21.5858 17.3856C21.3959 17.3856 21.215 17.3133 21.0702 17.1776Z" fill="black"/>
</svg>
